<mxfile host="app.diagrams.net" modified="2024-04-26T06:24:29.976Z" agent="Mozilla/5.0 (Windows NT 10.0; Win64; x64) AppleWebKit/537.36 (KHTML, like Gecko) Chrome/124.0.0.0 Safari/537.36" version="24.3.0" etag="-U_6RN22pUw4nHP-1GIX" type="github">
  <diagram name="Страница — 1" id="R7GOpZyT1pDB8Yxjgvwk">
    <mxGraphModel>
      <root>
        <mxCell id="0" />
        <mxCell id="1" parent="0" />
      </root>
    </mxGraphModel>
  </diagram>
</mxfile>
